<svg width="21" height="20" viewBox="0 0 21 20" fill="none" xmlns="http://www.w3.org/2000/svg">
<path d="M18.75 10C18.75 14.5563 15.0563 18.25 10.5 18.25V19.75C15.8848 19.75 20.25 15.3848 20.25 10H18.75ZM10.5 18.25C5.94365 18.25 2.25 14.5563 2.25 10H0.75C0.75 15.3848 5.11522 19.75 10.5 19.75V18.25ZM2.25 10C2.25 5.44365 5.94365 1.75 10.5 1.75V0.25C5.11522 0.25 0.75 4.61522 0.75 10H2.25ZM10.5 1.75C15.0563 1.75 18.75 5.44365 18.75 10H20.25C20.25 4.61522 15.8848 0.25 10.5 0.25V1.75ZM10.5 1C10.05 1.6 10.0497 1.5998 10.0495 1.59961C10.0494 1.59956 10.0492 1.59939 10.0491 1.59929C10.0488 1.5991 10.0486 1.59895 10.0485 1.59885C10.0482 1.59864 10.0482 1.59862 10.0484 1.59877C10.0488 1.59908 10.0501 1.6001 10.0523 1.60183C10.0568 1.6053 10.0649 1.61163 10.0764 1.62081C10.0994 1.63917 10.1358 1.66893 10.1838 1.71007C10.2798 1.79238 10.4218 1.92001 10.5947 2.09283C10.9407 2.43885 11.4077 2.96357 11.876 3.66603C12.8106 5.06805 13.75 7.17573 13.75 10H15.25C15.25 6.82427 14.1894 4.43195 13.124 2.83397C12.5923 2.03643 12.0593 1.43615 11.6553 1.03217C11.4532 0.829993 11.2827 0.676366 11.16 0.571183C11.0986 0.518571 11.0491 0.478015 11.0134 0.449505C10.9956 0.435247 10.9813 0.423995 10.9706 0.415746C10.9653 0.411622 10.9609 0.408248 10.9574 0.405624C10.9557 0.404311 10.9542 0.403187 10.953 0.40225C10.9524 0.401781 10.9518 0.401359 10.9513 0.400984C10.9511 0.400797 10.9507 0.400551 10.9506 0.400457C10.9503 0.400223 10.95 0.4 10.5 1ZM13.75 10C13.75 12.8243 12.8106 14.9319 11.876 16.334C11.4077 17.0364 10.9407 17.5611 10.5947 17.9072C10.4218 18.08 10.2798 18.2076 10.1838 18.2899C10.1358 18.3311 10.0994 18.3608 10.0764 18.3792C10.0649 18.3884 10.0568 18.3947 10.0523 18.3982C10.0501 18.3999 10.0488 18.4009 10.0484 18.4012C10.0482 18.4014 10.0482 18.4014 10.0485 18.4012C10.0486 18.401 10.0488 18.4009 10.0491 18.4007C10.0492 18.4006 10.0494 18.4004 10.0495 18.4004C10.0497 18.4002 10.05 18.4 10.5 19C10.95 19.6 10.9503 19.5998 10.9506 19.5995C10.9507 19.5994 10.9511 19.5992 10.9513 19.599C10.9518 19.5986 10.9524 19.5982 10.953 19.5977C10.9542 19.5968 10.9557 19.5957 10.9574 19.5944C10.9609 19.5918 10.9653 19.5884 10.9706 19.5843C10.9813 19.576 10.9956 19.5648 11.0134 19.5505C11.0491 19.522 11.0986 19.4814 11.16 19.4288C11.2827 19.3236 11.4532 19.17 11.6553 18.9678C12.0593 18.5639 12.5923 17.9636 13.124 17.166C14.1894 15.5681 15.25 13.1757 15.25 10H13.75ZM10.5 19C10.95 18.4 10.9503 18.4002 10.9505 18.4004C10.9506 18.4004 10.9508 18.4006 10.9509 18.4007C10.9512 18.4009 10.9514 18.401 10.9515 18.4012C10.9518 18.4014 10.9518 18.4014 10.9516 18.4012C10.9512 18.4009 10.9499 18.3999 10.9477 18.3982C10.9432 18.3947 10.9351 18.3884 10.9236 18.3792C10.9006 18.3608 10.8642 18.3311 10.8162 18.2899C10.7202 18.2076 10.5782 18.08 10.4053 17.9072C10.0593 17.5611 9.59234 17.0364 9.12404 16.334C8.18935 14.9319 7.25 12.8243 7.25 10H5.75C5.75 13.1757 6.81065 15.5681 7.87596 17.166C8.40766 17.9636 8.94069 18.5639 9.34467 18.9678C9.54685 19.17 9.71732 19.3236 9.84003 19.4288C9.90141 19.4814 9.95092 19.522 9.98656 19.5505C10.0044 19.5648 10.0187 19.576 10.0294 19.5843C10.0347 19.5884 10.0391 19.5918 10.0426 19.5944C10.0443 19.5957 10.0458 19.5968 10.047 19.5977C10.0476 19.5982 10.0482 19.5986 10.0487 19.599C10.0489 19.5992 10.0493 19.5994 10.0494 19.5995C10.0497 19.5998 10.05 19.6 10.5 19ZM7.25 10C7.25 7.17573 8.18935 5.06805 9.12404 3.66603C9.59234 2.96357 10.0593 2.43885 10.4053 2.09283C10.5782 1.92001 10.7202 1.79238 10.8162 1.71007C10.8642 1.66893 10.9006 1.63917 10.9236 1.62081C10.9351 1.61163 10.9432 1.6053 10.9477 1.60183C10.9499 1.6001 10.9512 1.59908 10.9516 1.59877C10.9518 1.59862 10.9518 1.59864 10.9515 1.59885C10.9514 1.59895 10.9512 1.5991 10.9509 1.59929C10.9508 1.59939 10.9506 1.59956 10.9505 1.59961C10.9503 1.5998 10.95 1.6 10.5 1C10.05 0.4 10.0497 0.400223 10.0494 0.400457C10.0493 0.40055 10.0489 0.400797 10.0487 0.400984C10.0482 0.401359 10.0476 0.401781 10.047 0.40225C10.0458 0.403187 10.0443 0.404311 10.0426 0.405623C10.0391 0.408248 10.0347 0.411622 10.0294 0.415746C10.0187 0.423995 10.0044 0.435247 9.98656 0.449505C9.95092 0.478015 9.90141 0.518571 9.84003 0.571183C9.71732 0.676366 9.54685 0.829993 9.34467 1.03217C8.94069 1.43615 8.40766 2.03643 7.87596 2.83397C6.81065 4.43195 5.75 6.82427 5.75 10H7.25ZM19.5 9.25H1.5V10.75H19.5V9.25Z" fill="#7E74F1"/>
</svg>
