<svg width="20" height="20" viewBox="0 0 20 20" fill="none" xmlns="http://www.w3.org/2000/svg">
<path d="M18.9995 14.4767L18.2497 14.458C18.2495 14.4642 18.2495 14.4705 18.2495 14.4767L18.9995 14.4767ZM18.9995 17.1864L18.2494 17.1864L18.2495 17.1895L18.9995 17.1864ZM2.80817 1.00009L2.80817 0.250087L2.80746 0.250088L2.80817 1.00009ZM5.52331 1.00009V1.75012L5.53068 1.75005L5.52331 1.00009ZM6.72138 1.43684L6.2329 2.00596L6.2329 2.00596L6.72138 1.43684ZM6.41026 8.14484L5.88045 7.61399C5.64112 7.85285 5.59121 8.22232 5.7586 8.51612L6.41026 8.14484ZM11.8405 13.5644L11.4704 14.2167C11.7636 14.383 12.1317 14.3334 12.3703 14.0952L11.8405 13.5644ZM18.5709 13.264L19.1427 12.7786L19.1427 12.7786L18.5709 13.264ZM8.04287 6.10428L8.77632 6.26101L8.77632 6.26101L8.04287 6.10428ZM13.8851 11.935L14.0413 12.6686L14.0413 12.6686L13.8851 11.935ZM17.0265 18.9929L17.0938 18.246C17.0712 18.2439 17.0486 18.2429 17.0259 18.2429L17.0265 18.9929ZM1.00713 2.96919L1.75713 2.96978C1.75714 2.947 1.75612 2.92424 1.75407 2.90155L1.00713 2.96919ZM12.6436 3.76388C12.2371 3.68456 11.8432 3.94983 11.7639 4.35638C11.6846 4.76293 11.9498 5.1568 12.3564 5.23612L12.6436 3.76388ZM14.7639 7.64362C14.8432 8.05017 15.2371 8.31544 15.6436 8.23612C16.0502 8.1568 16.3154 7.76293 16.2361 7.35638L14.7639 7.64362ZM13.0828 0.254586C12.6711 0.208851 12.3003 0.505509 12.2546 0.91719C12.2089 1.32887 12.5055 1.69968 12.9172 1.74541L13.0828 0.254586ZM17 3L17.53 2.46934L17.53 2.46934L17 3ZM18.2547 7.08375C18.3009 7.49537 18.6721 7.79156 19.0837 7.74531C19.4954 7.69906 19.7916 7.32788 19.7453 6.91625L18.2547 7.08375ZM18.2495 14.4767V17.1864H19.7495V14.4767H18.2495ZM2.80817 1.75009H5.52331V0.250088H2.80817V1.75009ZM5.53068 1.75005C5.78834 1.74752 6.03791 1.8386 6.2329 2.00596L7.20985 0.867724C6.73878 0.463408 6.13673 0.244026 5.51594 0.250124L5.53068 1.75005ZM5.7586 8.51612C7.11389 10.8949 9.08726 12.8643 11.4704 14.2167L12.2107 12.9121C10.0622 11.6928 8.28339 9.91749 7.06191 7.77357L5.7586 8.51612ZM17.9992 13.7494C18.1671 13.9472 18.2561 14.1994 18.2497 14.458L19.7492 14.4953C19.7648 13.868 19.5488 13.257 19.1427 12.7786L17.9992 13.7494ZM6.2329 2.00596C6.35549 2.11118 6.51659 2.32916 6.68369 2.67844C6.84497 3.01557 6.9876 3.42365 7.09918 3.85282C7.33166 4.74707 7.3895 5.57289 7.30943 5.94755L8.77632 6.26101C8.93057 5.53916 8.80106 4.43759 8.55092 3.47541C8.42118 2.97637 8.24868 2.47397 8.03681 2.0311C7.83075 1.60038 7.56067 1.16883 7.20985 0.867724L6.2329 2.00596ZM14.0413 12.6686C14.4183 12.5883 15.25 12.6466 16.1485 12.8801C16.58 12.9922 16.9898 13.1355 17.3278 13.2975C17.6782 13.4655 17.8954 13.6272 17.9992 13.7494L19.1427 12.7786C18.8418 12.4242 18.4084 12.1521 17.9763 11.9449C17.5318 11.7318 17.0271 11.5585 16.5258 11.4283C15.5589 11.177 14.4523 11.0475 13.729 11.2014L14.0413 12.6686ZM12.3703 14.0952C12.5321 13.9338 12.6946 13.7535 12.8397 13.5953C12.991 13.4303 13.1318 13.2798 13.2754 13.1446C13.5686 12.8684 13.8113 12.7175 14.0413 12.6686L13.729 11.2014C13.1012 11.335 12.6149 11.7061 12.247 12.0526C12.06 12.2287 11.8871 12.4147 11.7341 12.5815C11.5748 12.7552 11.4424 12.9021 11.3107 13.0335L12.3703 14.0952ZM7.30943 5.94755C7.26059 6.17614 7.10984 6.41795 6.833 6.71075C6.69753 6.85403 6.54673 6.99453 6.38134 7.1456C6.22285 7.29036 6.04217 7.45259 5.88045 7.61399L6.94006 8.6757C7.0717 8.54432 7.21891 8.4121 7.39295 8.25313C7.5601 8.10046 7.74648 7.92793 7.92296 7.74128C8.27002 7.3742 8.64222 6.8885 8.77632 6.26101L7.30943 5.94755ZM17.0259 18.2429C8.41627 18.2497 1.75039 11.523 1.75713 2.96978L0.257126 2.96859C0.249736 12.3469 7.58385 19.7503 17.027 19.7429L17.0259 18.2429ZM18.2495 17.1895C18.2519 17.7851 17.6976 18.3004 17.0938 18.246L16.9591 19.7399C18.4469 19.8741 19.7555 18.6595 19.7494 17.1834L18.2495 17.1895ZM1.75407 2.90155C1.70006 2.30506 2.21004 1.75065 2.80887 1.75009L2.80746 0.250088C1.33723 0.25147 0.125813 1.55284 0.260182 3.03682L1.75407 2.90155ZM12.3564 5.23612C12.9878 5.35931 13.5701 5.63076 13.9697 6.03033L15.0303 4.96967C14.3677 4.30708 13.4866 3.92834 12.6436 3.76388L12.3564 5.23612ZM13.9697 6.03033C14.3692 6.4299 14.6407 7.01224 14.7639 7.64362L16.2361 7.35638C16.0717 6.51344 15.6929 5.63226 15.0303 4.96967L13.9697 6.03033ZM12.9172 1.74541C14.2556 1.8941 15.4818 2.54368 16.47 3.53066L17.53 2.46934C16.3376 1.27846 14.8075 0.446183 13.0828 0.254586L12.9172 1.74541ZM16.47 3.53066C17.4567 4.51616 18.1041 5.74372 18.2547 7.08375L19.7453 6.91625C19.5517 5.19365 18.7239 3.6617 17.53 2.46934L16.47 3.53066Z" fill="#7E74F1"/>
</svg>
